<svg xmlns="http://www.w3.org/2000/svg" viewBox="0 0 125.383 92.497">
  <defs>
    <style>
      .cls-1 {
        fill: #282828;
      }
    </style>
  </defs>
  <g id="logoBrahim" transform="translate(-80 -80)">
    <path id="s" class="cls-1" d="M33.157,38.531a13.616,13.616,0,0,0,5.02,3.761,15.673,15.673,0,0,0,6.27,1.254A12.022,12.022,0,0,0,50.2,42.224a15.41,15.41,0,0,0,4.359-3.5,24.626,24.626,0,0,0,3.311-4.9q1.416-2.746,2.671-5.63t2.51-5.63a32.661,32.661,0,0,1,2.621-4.9,13.716,13.716,0,0,1,3.185-3.473,6.67,6.67,0,0,1,4.112-1.321,5.3,5.3,0,0,1,2.7.74A7.172,7.172,0,0,1,77.9,15.663a10.645,10.645,0,0,1,1.517,3.185,14,14,0,0,1,.564,4.062,14.282,14.282,0,0,1-2.4,7.912,22.326,22.326,0,0,1-7.3,6.683l3.423,3.761a34.268,34.268,0,0,0,5.02-4.526,19.7,19.7,0,0,0,2.959-4.359,16.06,16.06,0,0,0,1.342-4.439,31.093,31.093,0,0,0,.363-4.9,22.722,22.722,0,0,0-1.1-7.222,17.553,17.553,0,0,0-3.021-5.68,14.205,14.205,0,0,0-4.661-3.76,12.946,12.946,0,0,0-5.88-1.342,13.266,13.266,0,0,0-5.855,1.254,15.045,15.045,0,0,0-4.359,3.185,23.02,23.02,0,0,0-3.361,4.551q-1.441,2.51-2.7,5.165t-2.42,5.165a26.706,26.706,0,0,1-2.621,4.526,12.946,12.946,0,0,1-3.26,3.147,7.348,7.348,0,0,1-4.188,1.254,6.27,6.27,0,0,1-2.884-.74,8.012,8.012,0,0,1-2.51-2.032,10.436,10.436,0,0,1-1.705-3.16,11.493,11.493,0,0,1-.661-3.963,14.945,14.945,0,0,1,.564-4.188,13.3,13.3,0,0,1,1.768-3.761,20.8,20.8,0,0,1,3.085-3.548A43.947,43.947,0,0,1,42.2,8.255L38.335,4a26.685,26.685,0,0,0-5.02,4.827,22.669,22.669,0,0,0-2.959,4.941,20.3,20.3,0,0,0-1.412,4.9,31.522,31.522,0,0,0-.363,4.727,28.838,28.838,0,0,0,1.254,8.839,18.155,18.155,0,0,0,3.322,6.295Z" transform="translate(87.254 76)"/>
    <path id="bracket" class="cls-1" d="M122.874,31.327a20.525,20.525,0,0,1-5.53,11.134,14.081,14.081,0,0,1-10.031,4.4,31.924,31.924,0,0,1-4.5-.2q-1.849-.238-5.341-1.066A52.284,52.284,0,0,0,91.4,44.466a43.884,43.884,0,0,0-5.729-.238,19.872,19.872,0,0,0-13.475,5.5,34.969,34.969,0,0,0-9.078,14.92A34.506,34.506,0,0,0,53.659,50.1a19.573,19.573,0,0,0-13.529-5.09,36.52,36.52,0,0,0-4.35.276q-1.63.226-6.934,1.417-1.63.3-5.02,1.178a30.912,30.912,0,0,1-5.3.5A14.118,14.118,0,0,1,8.3,44.393,19.748,19.748,0,0,1,2.6,33.429H0a31.22,31.22,0,0,0,9.3,18.1,23.911,23.911,0,0,0,17.429,6.99,41.027,41.027,0,0,0,5.642-.439q2.378-.376,5.02-1.041t5.429-1.321a26.067,26.067,0,0,1,5.441-.7,11.547,11.547,0,0,1,9.14,4.2,21.24,21.24,0,0,1,4.888,11.1h2.174a22.061,22.061,0,0,1,4.651-11.284,11.41,11.41,0,0,1,8.851-4.514,23.6,23.6,0,0,1,4.359.338q2.181.376,5.743,1.128,1.642.238,5.466,1a41.438,41.438,0,0,0,6.144.3,23.911,23.911,0,0,0,17.2-7.525,30.556,30.556,0,0,0,8.5-18.468Z" transform="translate(80 82.926)"/>
    <path id="dot" class="cls-1" d="M51.4,70a4.8,4.8,0,0,0-4.916,4.815A4.492,4.492,0,0,0,51.3,79.731a5.02,5.02,0,0,0,5.12-5.016A4.865,4.865,0,0,0,51.4,70Z" transform="translate(91.794 92.752)"/>
  </g>
</svg>
