<svg xmlns="http://www.w3.org/2000/svg" viewBox="0 0 125.38 92.5">
	<defs>
		<style>
			.cls-1{fill:#282828}
		</style>
	</defs>
	<g id="logoBrahim" transform="translate(-80 -80)">
		<path id="s" d="M33.16 38.53a13.62 13.62 0 0 0 5.02 3.76 15.67 15.67 0 0 0 6.27 1.26 12.02 12.02 0 0 0 5.75-1.33 15.41 15.41 0 0 0 4.36-3.5 24.63 24.63 0 0 0 3.31-4.9q1.42-2.74 2.67-5.63t2.51-5.63a32.66 32.66 0 0 1 2.62-4.9 13.72 13.72 0 0 1 3.19-3.47 6.67 6.67 0 0 1 4.1-1.32 5.3 5.3 0 0 1 2.7.74 7.17 7.17 0 0 1 2.24 2.05 10.64 10.64 0 0 1 1.52 3.19 14 14 0 0 1 .56 4.06 14.28 14.28 0 0 1-2.4 7.91 22.33 22.33 0 0 1-7.3 6.68l3.42 3.77a34.27 34.27 0 0 0 5.02-4.53 19.7 19.7 0 0 0 2.96-4.36 16.06 16.06 0 0 0 1.34-4.44 31.1 31.1 0 0 0 .37-4.9 22.72 22.72 0 0 0-1.1-7.22 17.55 17.55 0 0 0-3.02-5.68 14.2 14.2 0 0 0-4.66-3.76 12.95 12.95 0 0 0-5.88-1.34 13.27 13.27 0 0 0-5.86 1.25 15.04 15.04 0 0 0-4.36 3.19 23.02 23.02 0 0 0-3.36 4.55q-1.44 2.5-2.7 5.16t-2.42 5.17a26.7 26.7 0 0 1-2.62 4.52 12.95 12.95 0 0 1-3.26 3.15 7.35 7.35 0 0 1-4.19 1.25 6.27 6.27 0 0 1-2.88-.74 8.01 8.01 0 0 1-2.51-2.03 10.44 10.44 0 0 1-1.7-3.16 11.5 11.5 0 0 1-.67-3.96 14.95 14.95 0 0 1 .57-4.19 13.3 13.3 0 0 1 1.76-3.76 20.8 20.8 0 0 1 3.09-3.55 43.95 43.95 0 0 1 4.58-3.63L38.33 4a26.68 26.68 0 0 0-5.01 4.83 22.67 22.67 0 0 0-2.96 4.94 20.3 20.3 0 0 0-1.42 4.9 31.52 31.52 0 0 0-.36 4.72 28.84 28.84 0 0 0 1.26 8.84 18.16 18.16 0 0 0 3.32 6.3z" class="cls-1" transform="translate(87.25 76)"/>
		<path id="bracket" d="M122.87 31.33a20.52 20.52 0 0 1-5.53 11.13 14.08 14.08 0 0 1-10.03 4.4 31.92 31.92 0 0 1-4.5-.2q-1.85-.24-5.34-1.07a52.28 52.28 0 0 0-6.07-1.12 43.88 43.88 0 0 0-5.73-.24 19.87 19.87 0 0 0-13.47 5.5 34.97 34.97 0 0 0-9.08 14.92 34.5 34.5 0 0 0-9.46-14.55 19.57 19.57 0 0 0-13.53-5.09 36.52 36.52 0 0 0-4.35.28q-1.63.22-6.93 1.41-1.63.3-5.02 1.18a30.91 30.91 0 0 1-5.3.5A14.12 14.12 0 0 1 8.3 44.4a19.75 19.75 0 0 1-5.7-10.96H0a31.22 31.22 0 0 0 9.3 18.1 23.91 23.91 0 0 0 17.43 6.99 41.03 41.03 0 0 0 5.64-.44q2.38-.38 5.02-1.04t5.43-1.32a26.07 26.07 0 0 1 5.44-.7 11.55 11.55 0 0 1 9.14 4.2 21.24 21.24 0 0 1 4.89 11.1h2.17a22.06 22.06 0 0 1 4.65-11.29 11.41 11.41 0 0 1 8.86-4.51 23.6 23.6 0 0 1 4.35.34q2.19.37 5.75 1.13 1.64.23 5.46 1a41.44 41.44 0 0 0 6.15.3 23.91 23.91 0 0 0 17.2-7.53 30.56 30.56 0 0 0 8.5-18.47z" class="cls-1" transform="translate(80 82.93)"/>
		<path id="dot" d="M51.4 70a4.8 4.8 0 0 0-4.92 4.82 4.5 4.5 0 0 0 4.82 4.91 5.02 5.02 0 0 0 5.12-5.02A4.87 4.87 0 0 0 51.4 70z" class="cls-1" transform="translate(91.8 92.75)"/>
	</g>
</svg>
